<svg width="99" height="25" viewBox="0 0 99 25" fill="none" xmlns="http://www.w3.org/2000/svg">
<path d="M8.97465 24.8879C7.3128 24.8879 5.85584 24.5009 4.60377 23.7269C3.37445 22.9301 2.41831 21.8601 1.73536 20.517C1.05241 19.1739 0.710938 17.6941 0.710938 16.0778C0.710938 14.4387 1.05241 12.959 1.73536 11.6386C2.41831 10.2955 3.37445 9.23692 4.60377 8.46291C5.85584 7.66614 7.3128 7.26775 8.97465 7.26775C10.3861 7.26775 11.5926 7.54093 12.5943 8.08729C13.6187 8.63365 14.4496 9.37352 15.0871 10.3069V0.711426H17.6481V24.6147H15.0871V21.8829C14.4496 22.7935 13.6187 23.522 12.5943 24.0683C11.5926 24.6147 10.3861 24.8879 8.97465 24.8879ZM9.31612 22.5658C10.591 22.5658 11.6609 22.2699 12.526 21.678C13.4138 21.0861 14.0854 20.3007 14.5407 19.3218C14.996 18.3202 15.2236 17.2388 15.2236 16.0778C15.2236 14.894 14.996 13.8127 14.5407 12.8338C14.0854 11.8549 13.4138 11.0695 12.526 10.4776C11.6609 9.88573 10.591 9.58978 9.31612 9.58978C8.06405 9.58978 6.98271 9.88573 6.07211 10.4776C5.16151 11.0695 4.46718 11.8549 3.98911 12.8338C3.51104 13.8127 3.27201 14.894 3.27201 16.0778C3.27201 17.2388 3.51104 18.3202 3.98911 19.3218C4.46718 20.3007 5.16151 21.0861 6.07211 21.678C6.98271 22.2699 8.06405 22.5658 9.31612 22.5658ZM62.7172 24.6147V7.54093H65.2783V10.2044C65.8929 9.3849 66.6442 8.69056 67.532 8.12144C68.4198 7.55231 69.5581 7.26775 70.9467 7.26775C72.1305 7.26775 73.2346 7.55231 74.2591 8.12144C75.3062 8.6678 76.1485 9.49872 76.786 10.6142C77.4462 11.7069 77.7762 13.0614 77.7762 14.6778V24.6147H75.2152V14.7461C75.2152 13.198 74.7713 11.9573 73.8834 11.024C72.9956 10.0678 71.846 9.58978 70.4345 9.58978C69.4784 9.58978 68.6133 9.80605 67.8393 10.2386C67.0653 10.6711 66.4393 11.2858 65.9612 12.0826C65.5059 12.8566 65.2783 13.7558 65.2783 14.7802V24.6147H62.7172ZM83.7304 24.6147V0.711426H86.2914V16.0095L94.521 7.54093H98.1065L91.2428 14.268L98.6187 24.6147H95.4771L89.5013 16.0437L86.2914 19.2194V24.6147H83.7304Z" fill="url(#paint0_linear_902_3918)"/>
<defs>
<linearGradient id="paint0_linear_902_3918" x1="49.6648" y1="0.711426" x2="49.6648" y2="24.8879" gradientUnits="userSpaceOnUse">
<stop stop-color="#010306"/>
<stop offset="1" stop-color="#004A61"/>
</linearGradient>
</defs>
</svg>
