<svg width="58" height="70" viewBox="0 0 58 70" fill="none" xmlns="http://www.w3.org/2000/svg">
<path d="M20.1291 42.6515L23.6525 45.9544L14.47 55.4409C7.24746 48.9787 4.96671 46.1753 1.79484 39.5396C-0.105823 34.8674 -2.00208 22.9673 4.96681 12.4386C13.0445 1.27217 24.686 -0.445226 30.8632 0.0842515C47.4941 1.50975 57.3894 15.3064 57.627 28.3734C57.8171 38.8271 52.4833 45.225 49.3116 49.2804L47.2565 51.6396L28.8794 69.7125L19.8511 60.4468L37.7921 42.5584C41.0746 39.2854 44.3917 35.599 44.7433 30.9767C45.2251 24.6309 41.7113 19.526 39.8082 17.6822C30.8751 9.12922 21.0391 14.1185 17.2378 17.6822C12.2387 22.8129 12.3388 29.0742 13.7407 33.7561C14.8064 37.3148 17.419 40.1108 20.1291 42.6515Z" fill="url(#paint0_linear_902_3912)"/>
<defs>
<linearGradient id="paint0_linear_902_3912" x1="55.0968" y1="-0.390912" x2="28.8044" y2="69.7125" gradientUnits="userSpaceOnUse">
<stop stop-color="#010306"/>
<stop offset="1" stop-color="#004A61"/>
</linearGradient>
</defs>
</svg>
